<svg width="15" height="16" viewBox="0 0 15 16" fill="none" xmlns="http://www.w3.org/2000/svg">
<path d="M7.5 2.39056C6.34113 2.39056 5.20828 2.73421 4.24471 3.37805C3.28114 4.02188 2.53013 4.93699 2.08665 6.00765C1.64316 7.07831 1.52713 8.25644 1.75321 9.39305C1.9793 10.5297 2.53735 11.5737 3.3568 12.3931C4.17625 13.2126 5.22029 13.7706 6.35689 13.9967C7.4935 14.2228 8.67163 14.1068 9.74229 13.6633C10.8129 13.2198 11.7281 12.4688 12.3719 11.5052C13.0157 10.5417 13.3594 9.40881 13.3594 8.24994C13.3577 6.69646 12.7398 5.2071 11.6413 4.10862C10.5428 3.01014 9.05348 2.39227 7.5 2.39056ZM7.5 13.6406C6.43384 13.6406 5.39162 13.3244 4.50513 12.7321C3.61865 12.1397 2.92772 11.2978 2.51971 10.3128C2.11171 9.32783 2.00496 8.24396 2.21296 7.19828C2.42096 6.1526 2.93436 5.19208 3.68825 4.43819C4.44215 3.6843 5.40266 3.17089 6.44834 2.96289C7.49402 2.75489 8.5779 2.86165 9.56291 3.26965C10.5479 3.67765 11.3898 4.36858 11.9821 5.25507C12.5745 6.14155 12.8906 7.18377 12.8906 8.24994C12.8891 9.67915 12.3206 11.0494 11.31 12.06C10.2994 13.0706 8.92921 13.639 7.5 13.6406ZM9.5625 9.7974C9.23775 10.2301 8.7851 10.5497 8.26863 10.711C7.75217 10.8722 7.19807 10.8668 6.68482 10.6956C6.17157 10.5245 5.72517 10.1962 5.40885 9.75725C5.09253 9.31831 4.92232 8.79098 4.92232 8.24994C4.92232 7.7089 5.09253 7.18157 5.40885 6.74263C5.72517 6.30369 6.17157 5.9754 6.68482 5.80423C7.19807 5.63307 7.75217 5.62771 8.26863 5.78892C8.7851 5.95013 9.23775 6.26974 9.5625 6.70248C9.58101 6.7271 9.59448 6.75513 9.60216 6.78496C9.60983 6.81479 9.61155 6.84584 9.60723 6.87633C9.6029 6.90683 9.59261 6.93618 9.57695 6.9627C9.56128 6.98922 9.54054 7.01239 9.51592 7.0309C9.4913 7.0494 9.46327 7.06288 9.43344 7.07055C9.40361 7.07822 9.37256 7.07995 9.34206 7.07562C9.31157 7.0713 9.28222 7.06101 9.2557 7.04534C9.22918 7.02967 9.20601 7.00894 9.1875 6.98431C8.92187 6.63014 8.55153 6.36852 8.12895 6.23651C7.70637 6.10451 7.25296 6.10881 6.83296 6.24881C6.41296 6.38881 6.04765 6.65741 5.78879 7.01657C5.52992 7.37572 5.39063 7.80722 5.39063 8.24994C5.39063 8.69266 5.52992 9.12416 5.78879 9.48331C6.04765 9.84247 6.41296 10.1111 6.83296 10.2511C7.25296 10.3911 7.70637 10.3954 8.12895 10.2634C8.55153 10.1314 8.92187 9.86974 9.1875 9.51556C9.22488 9.46584 9.28047 9.43299 9.34206 9.42426C9.40365 9.41552 9.46619 9.43161 9.51592 9.46898C9.56565 9.50635 9.59849 9.56195 9.60723 9.62354C9.61596 9.68513 9.59988 9.74767 9.5625 9.7974Z" fill="white"/>
</svg>
